<svg width="627" height="136" viewBox="0 0 627 136" fill="none" xmlns="http://www.w3.org/2000/svg">
<g clip-path="url(#clip0_6_2)">
<path d="M64.3001 79.8L26.3001 29.9L11.6001 78.5H-0.399902L23.6001 0L68.0001 57.7L111.1 0L135.2 78.5H116.9L102 29.4L64.3001 79.8Z" fill="white"/>
<path d="M221.6 78.4999H148.7V8.8999H221.6V18.2999H166.3V38.0999H210.6V47.4999H166.3V69.1999H221.6V78.4999Z" fill="white"/>
<path d="M279.9 78.4999H262.2V18.6999H229.5V8.8999H312.6V18.6999H279.9V78.4999Z" fill="white"/>
<path d="M339.9 7.7998L388.5 78.4998H369.4L360.5 65.3998H312.2L303.2 78.4998H290.5L339.9 7.7998ZM336.3 29.8998L318.6 55.8998H354L336.3 29.8998Z" fill="white"/>
<path d="M469.8 78.4999H399.3V8.8999H416.8V68.8999H469.8V78.4999Z" fill="white"/>
<path d="M551.8 78.4999H481.3V8.8999H498.8V68.8999H551.8V78.4999Z" fill="white"/>
<path d="M587.3 78.4999H568.5V54.0999L528.4 8.8999H549.6L581 44.8999L612.1 8.8999H626.5L587.4 54.0999V78.4999H587.3Z" fill="white"/>
<path d="M51.8001 116.2V134.9H48.6001V116.2H51.8001ZM50.5001 116.2H54.4001C55.8001 116.2 57.0001 116.4 58.0001 116.9C59.0001 117.4 59.8001 118.1 60.3001 118.9C60.9001 119.8 61.1001 120.8 61.1001 122C61.1001 123.2 60.8001 124.2 60.3001 125.1C59.7001 126 59.0001 126.7 58.0001 127.1C57.0001 127.6 55.8001 127.8 54.4001 127.8H50.5001V125.2H54.3001C55.0001 125.2 55.7001 125.1 56.2001 124.8C56.7001 124.6 57.2001 124.2 57.5001 123.7C57.8001 123.2 58.0001 122.7 58.0001 122C58.0001 121.3 57.8001 120.8 57.5001 120.3C57.2001 119.8 56.8001 119.5 56.2001 119.2C55.7001 119 55.0001 118.8 54.3001 118.8H50.5001V116.2ZM55.9001 126L62.3001 134.9H58.5001L52.6001 126H55.9001Z" fill="white"/>
<path d="M75.7001 116.2V134.9H72.6001V116.2H75.7001ZM74.5001 116.2H83.9001V119H74.5001V116.2ZM74.5001 123.5H83.4001V126.2H74.5001V123.5ZM74.5001 132.1H83.9001V134.9H74.5001V132.1Z" fill="white"/>
<path d="M100.1 128.3L100 129L97.4 134.9H93.8L102.9 115.1L112.1 134.9H108.5L106 129.2L105.9 128.4L102.9 121.4L100.1 128.3ZM98.7 127.4H107.4L108 130.1H98.1001L98.7 127.4Z" fill="white"/>
<path d="M125.5 116.2V132.1H132.9V134.9H122.3V116.2H125.5Z" fill="white"/>
<path d="M162.4 116.2V134.9H159.3V116.2H162.4ZM161.3 116.2H170.7V119H161.3V116.2ZM161.3 123.5H170.2V126.2H161.3V123.5ZM161.3 132.1H170.7V134.9H161.3V132.1Z" fill="white"/>
<path d="M185.2 130.7C185.7 131.2 186.2 131.7 186.8 132C187.4 132.3 188 132.5 188.7 132.5C189.6 132.5 190.3 132.3 190.8 131.8C191.3 131.3 191.6 130.7 191.6 130C191.6 129.3 191.4 128.8 191.1 128.4C190.8 128 190.3 127.6 189.7 127.3C189.1 127 188.4 126.7 187.6 126.4C187.1 126.2 186.6 126 186 125.7C185.4 125.4 184.9 125.1 184.4 124.7C183.9 124.3 183.5 123.8 183.1 123.1C182.8 122.5 182.6 121.7 182.6 120.9C182.6 119.9 182.9 119 183.4 118.3C183.9 117.6 184.6 116.9 185.5 116.5C186.4 116.1 187.4 115.9 188.5 115.9C189.6 115.9 190.6 116.1 191.4 116.5C192.2 116.9 192.9 117.4 193.5 118C194.1 118.6 194.5 119.2 194.8 119.9L192.3 121.3C192.1 120.8 191.7 120.4 191.4 120C191 119.6 190.6 119.3 190.2 119C189.7 118.8 189.2 118.6 188.6 118.6C187.7 118.6 187.1 118.8 186.7 119.2C186.3 119.6 186.1 120.1 186.1 120.6C186.1 121.1 186.2 121.5 186.5 121.9C186.8 122.3 187.3 122.6 187.9 123C188.5 123.3 189.3 123.7 190.3 124C190.9 124.2 191.4 124.4 192 124.7C192.6 125 193.1 125.4 193.5 125.8C194 126.2 194.3 126.8 194.6 127.4C194.9 128 195 128.7 195 129.6C195 130.5 194.8 131.3 194.5 132C194.2 132.7 193.7 133.3 193.1 133.8C192.5 134.3 191.8 134.6 191.1 134.9C190.4 135.2 189.6 135.3 188.8 135.3C187.7 135.3 186.7 135.1 185.8 134.6C184.9 134.2 184 133.6 183.3 132.8C182.6 132.1 182 131.3 181.6 130.4L184 128.7C184.2 129.6 184.7 130.2 185.2 130.7Z" fill="white"/>
<path d="M204.2 116.2H217.3V119.1H212.4V134.9H209.2V119.1H204.3V116.2H204.2Z" fill="white"/>
<path d="M229.1 128.3L229 129L226.4 134.9H222.8L231.9 115.1L241.1 134.9H237.5L235 129.2L234.9 128.4L231.9 121.4L229.1 128.3ZM227.8 127.4H236.5L237.1 130.1H227.2L227.8 127.4Z" fill="white"/>
<path d="M247.7 116.2H260.8V119.1H255.9V134.9H252.7V119.1H247.8V116.2H247.7Z" fill="white"/>
<path d="M274.2 116.2V134.9H271.1V116.2H274.2ZM273 116.2H282.4V119H273V116.2ZM273 123.5H281.9V126.2H273V123.5ZM273 132.1H282.4V134.9H273V132.1Z" fill="white"/>
<path d="M313.6 116.2V134.9H310.4V116.2H313.6ZM312.4 134.9V131.9H316.4C317.3 131.9 318.2 131.8 319 131.5C319.8 131.2 320.5 130.8 321 130.3C321.6 129.8 322 129.1 322.4 128.3C322.7 127.5 322.9 126.6 322.9 125.5C322.9 124.4 322.7 123.5 322.4 122.7C322.1 121.9 321.6 121.2 321 120.7C320.4 120.2 319.7 119.8 319 119.5C318.2 119.2 317.4 119.1 316.4 119.1H312.4V116.1H316.5C318.4 116.1 320.1 116.5 321.5 117.3C322.9 118.1 324.1 119.2 324.9 120.6C325.7 122 326.1 123.6 326.1 125.5C326.1 127.4 325.7 129 324.9 130.4C324.1 131.8 323 132.9 321.5 133.7C320.1 134.5 318.4 134.9 316.5 134.9H312.4Z" fill="white"/>
<path d="M340.3 116.2V134.9H337.2V116.2H340.3ZM339.1 116.2H348.5V119H339.1V116.2ZM339.1 123.5H348V126.2H339.1V123.5ZM339.1 132.1H348.5V134.9H339.1V132.1Z" fill="white"/>
<path d="M373.1 116.2H376.8L367.6 136L358.5 116.2H362.1L367.6 129.4L373.1 116.2Z" fill="white"/>
<path d="M390.1 116.2V134.9H387V116.2H390.1ZM388.9 116.2H398.3V119H388.9V116.2ZM388.9 123.5H397.8V126.2H388.9V123.5ZM388.9 132.1H398.3V134.9H388.9V132.1Z" fill="white"/>
<path d="M413.4 116.2V132.1H420.8V134.9H410.2V116.2H413.4Z" fill="white"/>
<path d="M430 121.6C430.5 120.4 431.2 119.4 432 118.5C432.9 117.6 433.9 117 435.1 116.5C436.3 116 437.6 115.8 438.9 115.8C440.3 115.8 441.6 116 442.8 116.5C444 117 445 117.7 445.9 118.5C446.8 119.4 447.5 120.4 447.9 121.6C448.4 122.8 448.6 124.1 448.6 125.5C448.6 126.9 448.4 128.2 447.9 129.4C447.4 130.6 446.7 131.6 445.9 132.5C445 133.4 444 134.1 442.8 134.5C441.6 135 440.3 135.2 438.9 135.2C437.5 135.2 436.2 135 435 134.5C433.8 134 432.8 133.3 431.9 132.5C431 131.6 430.3 130.6 429.9 129.4C429.4 128.2 429.2 126.9 429.2 125.5C429.3 124.1 429.5 122.8 430 121.6ZM433.4 128.9C434 129.9 434.7 130.7 435.7 131.3C436.7 131.9 437.7 132.2 439 132.2C440.2 132.2 441.3 131.9 442.3 131.3C443.3 130.7 444 129.9 444.5 128.9C445 127.9 445.3 126.8 445.3 125.5C445.3 124.2 445 123.1 444.5 122.1C444 121.1 443.2 120.3 442.3 119.7C441.3 119.1 440.2 118.8 439 118.8C437.8 118.8 436.7 119.1 435.7 119.7C434.7 120.3 434 121.1 433.4 122.1C432.8 123.1 432.6 124.3 432.6 125.5C432.6 126.8 432.9 127.9 433.4 128.9Z" fill="white"/>
<path d="M463 116.2V134.9H459.8V116.2H463ZM461.7 116.2H465.5C466.9 116.2 468.1 116.4 469.1 116.9C470.1 117.4 470.9 118 471.4 118.9C472 119.8 472.2 120.8 472.2 122C472.2 123.2 471.9 124.2 471.4 125.1C470.8 126 470.1 126.6 469.1 127.1C468.1 127.6 466.9 127.8 465.5 127.8H461.7V125H465.5C466.6 125 467.5 124.7 468.1 124.2C468.8 123.7 469.1 122.9 469.1 121.9C469.1 120.9 468.8 120.1 468.1 119.6C467.4 119.1 466.6 118.8 465.5 118.8H461.7V116.2Z" fill="white"/>
<path d="M485.5 134.9H482.2L484.8 115.2L492.5 127.9L500.2 115.2L502.8 134.9H499.5L498.2 123.5L492.5 133.2L486.8 123.5L485.5 134.9Z" fill="white"/>
<path d="M517 116.2V134.9H513.9V116.2H517ZM515.9 116.2H525.3V119H515.9V116.2ZM515.9 123.5H524.8V126.2H515.9V123.5ZM515.9 132.1H525.3V134.9H515.9V132.1Z" fill="white"/>
<path d="M554 116.2V135.9L540.3 122.4V135H537.2V115.3L550.9 128.8V116.2H554Z" fill="white"/>
<path d="M564.3 116.2H577.4V119.1H572.5V134.9H569.3V119.1H564.4V116.2H564.3Z" fill="white"/>
</g>
<defs>
<clipPath id="clip0_6_2">
<rect width="627" height="136" fill="white"/>
</clipPath>
</defs>
</svg>
